<svg width="60" height="60" viewBox="0 0 60 60" fill="none" xmlns="http://www.w3.org/2000/svg">
<g clip-path="url(#clip0_192520_569)">
<path d="M45 15H40C40 9.475 35.525 5 30 5C24.475 5 20 9.475 20 15H15C12.25 15 10 17.25 10 20V50C10 52.75 12.25 55 15 55H45C47.75 55 50 52.75 50 50V20C50 17.25 47.75 15 45 15ZM30 10C32.75 10 35 12.25 35 15H25C25 12.25 27.25 10 30 10ZM45 50H15V20H20V25C20 26.375 21.125 27.5 22.5 27.5C23.875 27.5 25 26.375 25 25V20H35V25C35 26.375 36.125 27.5 37.5 27.5C38.875 27.5 40 26.375 40 25V20H45V50Z" fill="url(#paint0_linear_192520_569)"/>
</g>
<defs>
<linearGradient id="paint0_linear_192520_569" x1="30" y1="5" x2="30" y2="55" gradientUnits="userSpaceOnUse">
<stop stop-color="#210D23"/>
<stop offset="1" stop-color="#D04AD2"/>
</linearGradient>
<clipPath id="clip0_192520_569">
<rect width="60" height="60" fill="white"/>
</clipPath>
</defs>
</svg>
