<svg width="50" height="50" viewBox="0 0 50 50" fill="none" xmlns="http://www.w3.org/2000/svg">
<path d="M36.25 0C31.9 0 27.725 2.20708 25 5.69482C22.275 2.20708 18.1 0 13.75 0C6.05 0 0 6.59401 0 14.9864C0 25.2861 8.5 33.6785 21.375 46.4305L25 50L28.625 46.4033C41.5 33.6785 50 25.2861 50 14.9864C50 6.59401 43.95 0 36.25 0ZM25.25 42.3706L25 42.643L24.75 42.3706C12.85 30.6267 5 22.861 5 14.9864C5 9.53678 8.75 5.44959 13.75 5.44959C17.6 5.44959 21.35 8.14714 22.675 11.8801H27.35C28.65 8.14714 32.4 5.44959 36.25 5.44959C41.25 5.44959 45 9.53678 45 14.9864C45 22.861 37.15 30.6267 25.25 42.3706Z" fill="url(#paint0_linear_192520_567)"/>
<defs>
<linearGradient id="paint0_linear_192520_567" x1="20.8912" y1="-6.00002" x2="93.162" y2="3.56945" gradientUnits="userSpaceOnUse">
<stop stop-color="#4B0247"/>
<stop offset="1" stop-color="#D134BC"/>
</linearGradient>
</defs>
</svg>
